<svg width="30" height="30" viewBox="0 0 30 30" fill="none" xmlns="http://www.w3.org/2000/svg">
<path fill-rule="evenodd" clip-rule="evenodd" d="M15 28.75C7.40608 28.75 1.25 22.5939 1.25 15C1.25 7.40608 7.40608 1.25 15 1.25C22.5939 1.25 28.75 7.40608 28.75 15C28.75 22.5939 22.5939 28.75 15 28.75ZM15 26.25C21.2132 26.25 26.25 21.2132 26.25 15C26.25 8.7868 21.2132 3.75 15 3.75C8.7868 3.75 3.75 8.7868 3.75 15C3.75 21.2132 8.7868 26.25 15 26.25ZM10.8839 20.8839L15 16.7678L19.1161 20.8839L20.8839 19.1161L16.7678 15L20.8839 10.8839L19.1161 9.11612L15 13.2322L10.8839 9.11612L9.11612 10.8839L13.2322 15L9.11612 19.1161L10.8839 20.8839Z" fill="black"/>
</svg>
