<svg width="50" height="50" viewBox="0 0 50 50" fill="none" xmlns="http://www.w3.org/2000/svg">
<path fill-rule="evenodd" clip-rule="evenodd" d="M38.867 43.5355L43.4861 38.9164L41.8593 33.0063L42.5681 31.3136L47.9167 28.2955V21.7635L42.5832 18.7328L41.8864 17.0431L43.5336 11.1299L38.9113 6.51427L33.0006 8.14062L31.3117 7.43249L28.2934 2.08337H21.7613L18.7307 7.4168L17.0413 8.11351L11.1291 6.46422L6.51396 11.0794L8.14058 16.991L7.43244 18.6799L2.08333 21.6983V28.2284L7.41195 31.2658L8.10941 32.957L6.46243 38.8692L11.0793 43.4861L16.991 41.8595L18.6801 42.5677L21.6985 47.9146H28.2288L31.264 42.5858L32.9548 41.8885L38.867 43.5355ZM39.2764 28.3867L37.4601 32.7245L38.8254 37.6845L37.6412 38.8687L32.6917 37.4899L28.352 39.2797L25.8069 43.7479H24.1311L21.6071 39.2768L17.2741 37.46L12.3114 38.8256L11.1292 37.6434L12.508 32.6939L10.7184 28.3545L6.24999 25.8074V24.1314L10.7231 21.6073L12.54 17.2741L11.1745 12.3114L12.3542 11.1317L17.3037 12.5124L21.6449 10.722L24.186 6.25004H25.8602L28.3843 10.7232L32.7175 12.54L37.6812 11.1743L38.8663 12.3577L37.4878 17.3062L39.278 21.647L43.75 24.1882V25.8624L39.2764 28.3867ZM25 33.3334C20.3976 33.3334 16.6667 29.6024 16.6667 25C16.6667 20.3977 20.3976 16.6667 25 16.6667C29.6024 16.6667 33.3333 20.3977 33.3333 25C33.3333 29.6024 29.6024 33.3334 25 33.3334ZM29.1667 25C29.1667 27.3012 27.3012 29.1667 25 29.1667C22.6988 29.1667 20.8333 27.3012 20.8333 25C20.8333 22.6989 22.6988 20.8334 25 20.8334C27.3012 20.8334 29.1667 22.6989 29.1667 25Z" fill="black"/>
</svg>
