<svg width="200" height="200" viewBox="0 0 200 200" fill="none" xmlns="http://www.w3.org/2000/svg">
<g id="24 / security / unlock">
<path id="icon" fill-rule="evenodd" clip-rule="evenodd" d="M58.3333 91.6666V49.9999C58.3333 26.9881 76.9881 8.33325 100 8.33325C123.012 8.33325 141.667 26.9881 141.667 49.9999V66.6666H125V49.9999C125 36.1928 113.807 24.9999 100 24.9999C86.1929 24.9999 75 36.1928 75 49.9999V91.6666L150 91.6666C159.205 91.6666 166.667 99.1285 166.667 108.333V175C166.667 184.205 159.205 191.667 150 191.667H50C40.7953 191.667 33.3333 184.205 33.3333 175V108.333C33.3333 99.1285 40.7953 91.6666 50 91.6666L58.3333 91.6666ZM50 175V108.333H150V175H50ZM108.333 141.667C108.333 146.269 104.602 150 100 150C95.3976 150 91.6667 146.269 91.6667 141.667C91.6667 137.064 95.3976 133.333 100 133.333C104.602 133.333 108.333 137.064 108.333 141.667Z" fill="black"/>
</g>
</svg>
