<svg width="50" height="50" viewBox="0 0 50 50" fill="none" xmlns="http://www.w3.org/2000/svg">
<g id="24 / basic / user">
<path id="icon" fill-rule="evenodd" clip-rule="evenodd" d="M25 47.9167C12.3435 47.9167 2.08333 37.6566 2.08333 25C2.08333 12.3435 12.3435 2.08337 25 2.08337C37.6565 2.08337 47.9167 12.3435 47.9167 25C47.9167 37.6566 37.6565 47.9167 25 47.9167ZM40.4156 35.6764C42.5179 32.6465 43.75 28.9672 43.75 25C43.75 14.6447 35.3553 6.25004 25 6.25004C14.6447 6.25004 6.24999 14.6447 6.24999 25C6.24999 28.9672 7.48204 32.6465 9.58438 35.6764C11.9291 32.5793 17.4387 31.25 25 31.25C32.5612 31.25 38.0709 32.5793 40.4156 35.6764ZM37.4264 39.0412C36.8167 36.8487 32.4362 35.4167 25 35.4167C17.5638 35.4167 13.1833 36.8487 12.5736 39.0412C15.8819 41.9712 20.2332 43.75 25 43.75C29.7668 43.75 34.1181 41.9712 37.4264 39.0412ZM25 12.5C19.9565 12.5 16.6667 16.1579 16.6667 20.8334C16.6667 27.9737 20.3351 31.25 25 31.25C29.621 31.25 33.3333 28.0826 33.3333 21.25C33.3333 16.5033 30.0296 12.5 25 12.5ZM20.8333 20.8334C20.8333 25.561 22.5379 27.0834 25 27.0834C27.4536 27.0834 29.1667 25.6217 29.1667 21.25C29.1667 18.6467 27.5326 16.6667 25 16.6667C22.3619 16.6667 20.8333 18.3663 20.8333 20.8334Z" fill="black"/>
</g>
</svg>
